<svg xmlns="http://www.w3.org/2000/svg" xmlns:xlink="http://www.w3.org/1999/xlink" width="500" zoomAndPan="magnify" viewBox="0 0 375 374.999991" height="500" preserveAspectRatio="xMidYMid meet" version="1.0"><defs><g><g id="id1"/></g></defs><path stroke-linecap="butt" transform="matrix(1.282379, 0, 0, 1.282379, 5.597857, 120.995068)" fill="none" stroke-linejoin="miter" d="M 4.620773 57.998482 L 4.620773 18.185997 L 17.636744 18.185997 C 21.956109 18.185997 25.206294 19.08155 27.384254 20.866563 C 29.562213 22.654621 30.652715 25.295587 30.652715 28.795552 C 30.652715 30.656717 30.122695 32.30161 29.065699 33.733275 C 28.008703 35.161895 26.5679 36.270674 24.746334 37.053521 C 26.896878 37.656648 28.5966 38.798934 29.8455 40.486472 C 31.094399 42.174009 31.718849 44.181387 31.718849 46.514697 C 31.718849 50.087769 30.561332 52.89627 28.246299 54.937155 C 25.931265 56.978039 22.659758 57.998482 18.428729 57.998482 Z M 9.872243 39.377692 L 9.872243 53.706532 L 18.538389 53.706532 C 20.981358 53.706532 22.909537 53.072943 24.322926 51.805767 C 25.736315 50.538591 26.439964 48.793178 26.439964 46.569527 C 26.439964 41.774971 23.835551 39.377692 18.620633 39.377692 Z M 9.872243 35.167987 L 17.801233 35.167987 C 20.09799 35.167987 21.934786 34.592274 23.311622 33.443896 C 24.685412 32.295518 25.37383 30.738962 25.37383 28.768138 C 25.37383 26.58104 24.737196 24.990978 23.460881 23.99795 C 22.184566 23.004922 20.244203 22.508409 17.636744 22.508409 L 9.872243 22.508409 Z M 50.717355 57.998482 L 45.465884 57.998482 L 45.465884 18.185997 L 50.717355 18.185997 Z M 71.193217 53.706532 L 90.06074 53.706532 L 90.06074 57.998482 L 65.914331 57.998482 L 65.914331 18.185997 L 71.193217 18.185997 Z M 106.923932 53.706532 L 125.791455 53.706532 L 125.791455 57.998482 L 101.648092 57.998482 L 101.648092 18.185997 L 106.923932 18.185997 Z M 143.014086 57.998482 L 137.762615 57.998482 L 137.762615 18.185997 L 143.014086 18.185997 Z M 188.836519 39.377692 C 188.836519 43.279742 188.178563 46.685279 186.868741 49.591255 C 185.555873 52.500277 183.694708 54.717836 181.288292 56.250022 C 178.881875 57.782209 176.07642 58.546779 172.865834 58.546779 C 169.731401 58.546779 166.95336 57.776117 164.528667 56.237838 C 162.103974 54.696513 160.221487 52.500277 158.881204 49.646085 C 157.540921 46.794938 156.852504 43.489923 156.81595 39.734086 L 156.81595 36.864663 C 156.81595 33.035719 157.483046 29.654552 158.811144 26.718114 C 160.142288 23.784723 162.024776 21.536704 164.458607 19.977102 C 166.892438 18.420547 169.676571 17.640746 172.814051 17.640746 C 176.003314 17.640746 178.814861 18.411409 181.248692 19.949687 C 183.682524 21.491012 185.555873 23.723801 186.868741 26.6511 C 188.178563 29.575353 188.836519 32.980889 188.836519 36.864663 Z M 183.612464 36.809833 C 183.612464 32.088383 182.665127 28.463528 180.770455 25.938314 C 178.872737 23.416146 176.222633 22.152015 172.814051 22.152015 C 169.493805 22.152015 166.8833 23.416146 164.97949 25.938314 C 163.072633 28.463528 162.094836 31.969585 162.040006 36.45344 L 162.040006 39.377692 C 162.040006 43.95293 162.999527 47.55037 164.92466 50.166967 C 166.846747 52.780518 169.493805 54.09034 172.865834 54.09034 C 176.259186 54.09034 178.881875 52.853624 180.74304 50.386286 C 182.601159 47.915902 183.557634 44.373291 183.612464 39.761501 Z M 232.907447 57.998482 L 227.631608 57.998482 L 207.588291 27.321242 L 207.588291 57.998482 L 202.312451 57.998482 L 202.312451 18.185997 L 207.588291 18.185997 L 227.686437 49.003358 L 227.686437 18.185997 L 232.907447 18.185997 Z M 259.56384 40.254968 C 255.061709 38.960377 251.784109 37.370315 249.734086 35.481735 C 247.681016 33.596201 246.657528 31.265937 246.657528 28.497035 C 246.657528 25.359555 247.909474 22.767327 250.416411 20.717304 C 252.923349 18.667281 256.182672 17.640746 260.191336 17.640746 C 262.926731 17.640746 265.363608 18.170767 267.50806 19.227763 C 269.649466 20.284758 271.306543 21.740792 272.482336 23.601957 C 273.658129 25.460076 274.246026 27.494869 274.246026 29.700243 L 268.970187 29.700243 C 268.970187 27.293827 268.20257 25.402201 266.67343 24.025365 C 265.141243 22.648529 262.98156 21.960111 260.191336 21.960111 C 257.6052 21.960111 255.585637 22.529731 254.135695 23.668972 C 252.685753 24.808212 251.960782 26.389136 251.960782 28.41479 C 251.960782 30.035314 252.6492 31.409103 254.026036 32.530067 C 255.402872 33.651031 257.74532 34.674519 261.053381 35.606625 C 264.361442 36.535684 266.950624 37.559173 268.817882 38.680136 C 270.688185 39.804146 272.074159 41.110922 272.975804 42.606555 C 273.877448 44.099142 274.328271 45.859786 274.328271 47.882395 C 274.328271 51.108211 273.070233 53.694347 270.554157 55.634711 C 268.041127 57.575074 264.67519 58.546779 260.465484 58.546779 C 257.73009 58.546779 255.180507 58.022851 252.810643 56.974993 C 250.44078 55.927136 248.613122 54.489378 247.327669 52.667813 C 246.042216 50.846247 245.39949 48.774901 245.39949 46.459867 L 250.67533 46.459867 C 250.67533 48.866284 251.56479 50.767048 253.34371 52.162161 C 255.119585 53.557273 257.49554 54.254829 260.465484 54.254829 C 263.237432 54.254829 265.360562 53.688255 266.837919 52.558153 C 268.31223 51.428051 269.052431 49.886726 269.052431 47.937224 C 269.052431 45.987722 268.367059 44.479905 266.999362 43.410725 C 265.634711 42.344591 263.155188 41.293687 259.56384 40.254968 Z M 259.56384 40.254968 " stroke="rgb(32.939148%, 32.939148%, 32.939148%)" stroke-width="2.100004" stroke-opacity="1" stroke-miterlimit="4"/><g fill="rgb(100%, 56.858826%, 30.198669%)" fill-opacity="1"><g transform="translate(51.788238, 240.107877)"><g><path d="M 8.234375 -18.984375 C 9.242188 -18.984375 10.226562 -18.835938 11.1875 -18.546875 C 12.15625 -18.253906 12.875 -17.96875 13.34375 -17.6875 L 14.015625 -17.234375 L 12.296875 -13.84375 C 12.160156 -13.925781 11.972656 -14.039062 11.734375 -14.1875 C 11.492188 -14.332031 11.039062 -14.523438 10.375 -14.765625 C 9.71875 -15.003906 9.101562 -15.125 8.53125 -15.125 C 7.820312 -15.125 7.273438 -14.972656 6.890625 -14.671875 C 6.503906 -14.367188 6.3125 -13.960938 6.3125 -13.453125 C 6.3125 -13.191406 6.398438 -12.953125 6.578125 -12.734375 C 6.753906 -12.515625 7.0625 -12.28125 7.5 -12.03125 C 7.9375 -11.789062 8.320312 -11.59375 8.65625 -11.4375 C 8.988281 -11.289062 9.503906 -11.066406 10.203125 -10.765625 C 11.398438 -10.253906 12.425781 -9.554688 13.28125 -8.671875 C 14.132812 -7.785156 14.5625 -6.785156 14.5625 -5.671875 C 14.5625 -4.597656 14.367188 -3.660156 13.984375 -2.859375 C 13.597656 -2.066406 13.066406 -1.441406 12.390625 -0.984375 C 11.722656 -0.535156 10.984375 -0.203125 10.171875 0.015625 C 9.359375 0.234375 8.476562 0.34375 7.53125 0.34375 C 6.71875 0.34375 5.914062 0.257812 5.125 0.09375 C 4.34375 -0.0703125 3.6875 -0.28125 3.15625 -0.53125 C 2.632812 -0.78125 2.160156 -1.023438 1.734375 -1.265625 C 1.316406 -1.503906 1.007812 -1.707031 0.8125 -1.875 L 0.515625 -2.125 L 2.640625 -5.703125 C 2.828125 -5.546875 3.078125 -5.347656 3.390625 -5.109375 C 3.703125 -4.878906 4.257812 -4.566406 5.0625 -4.171875 C 5.875 -3.785156 6.59375 -3.59375 7.21875 -3.59375 C 9.007812 -3.59375 9.90625 -4.203125 9.90625 -5.421875 C 9.90625 -5.679688 9.835938 -5.921875 9.703125 -6.140625 C 9.578125 -6.359375 9.351562 -6.578125 9.03125 -6.796875 C 8.707031 -7.015625 8.421875 -7.1875 8.171875 -7.3125 C 7.921875 -7.4375 7.515625 -7.628906 6.953125 -7.890625 C 6.390625 -8.160156 5.972656 -8.363281 5.703125 -8.5 C 4.566406 -9.0625 3.6875 -9.757812 3.0625 -10.59375 C 2.445312 -11.425781 2.140625 -12.328125 2.140625 -13.296875 C 2.140625 -14.960938 2.757812 -16.328125 4 -17.390625 C 5.238281 -18.453125 6.648438 -18.984375 8.234375 -18.984375 Z M 8.234375 -18.984375 "/></g></g></g><g fill="rgb(100%, 56.858826%, 30.198669%)" fill-opacity="1"><g transform="translate(69.237798, 240.107877)"><g><path d="M 12.03125 -18.65625 L 12.03125 -14.921875 L 5.609375 -14.921875 L 5.609375 -11.21875 L 11.75 -11.21875 L 11.75 -7.484375 L 5.609375 -7.484375 L 5.609375 -3.734375 L 12.03125 -3.734375 L 12.03125 0 L 1.359375 0 L 1.359375 -18.65625 Z M 12.03125 -18.65625 "/></g></g></g><g fill="rgb(100%, 56.858826%, 30.198669%)" fill-opacity="1"><g transform="translate(84.607955, 240.107877)"><g><path d="M 10.828125 -18.65625 L 18.359375 0 L 13.796875 0 L 12.40625 -3.734375 L 5.3125 -3.734375 L 3.9375 0 L -0.640625 0 L 6.890625 -18.65625 Z M 10.96875 -7.46875 L 8.890625 -12.890625 L 8.84375 -12.890625 L 6.765625 -7.46875 Z M 10.96875 -7.46875 "/></g></g></g><g fill="rgb(100%, 56.858826%, 30.198669%)" fill-opacity="1"><g transform="translate(104.588928, 240.107877)"><g><path d="M 8.234375 -18.984375 C 9.242188 -18.984375 10.226562 -18.835938 11.1875 -18.546875 C 12.15625 -18.253906 12.875 -17.96875 13.34375 -17.6875 L 14.015625 -17.234375 L 12.296875 -13.84375 C 12.160156 -13.925781 11.972656 -14.039062 11.734375 -14.1875 C 11.492188 -14.332031 11.039062 -14.523438 10.375 -14.765625 C 9.71875 -15.003906 9.101562 -15.125 8.53125 -15.125 C 7.820312 -15.125 7.273438 -14.972656 6.890625 -14.671875 C 6.503906 -14.367188 6.3125 -13.960938 6.3125 -13.453125 C 6.3125 -13.191406 6.398438 -12.953125 6.578125 -12.734375 C 6.753906 -12.515625 7.0625 -12.28125 7.5 -12.03125 C 7.9375 -11.789062 8.320312 -11.59375 8.65625 -11.4375 C 8.988281 -11.289062 9.503906 -11.066406 10.203125 -10.765625 C 11.398438 -10.253906 12.425781 -9.554688 13.28125 -8.671875 C 14.132812 -7.785156 14.5625 -6.785156 14.5625 -5.671875 C 14.5625 -4.597656 14.367188 -3.660156 13.984375 -2.859375 C 13.597656 -2.066406 13.066406 -1.441406 12.390625 -0.984375 C 11.722656 -0.535156 10.984375 -0.203125 10.171875 0.015625 C 9.359375 0.234375 8.476562 0.34375 7.53125 0.34375 C 6.71875 0.34375 5.914062 0.257812 5.125 0.09375 C 4.34375 -0.0703125 3.6875 -0.28125 3.15625 -0.53125 C 2.632812 -0.78125 2.160156 -1.023438 1.734375 -1.265625 C 1.316406 -1.503906 1.007812 -1.707031 0.8125 -1.875 L 0.515625 -2.125 L 2.640625 -5.703125 C 2.828125 -5.546875 3.078125 -5.347656 3.390625 -5.109375 C 3.703125 -4.878906 4.257812 -4.566406 5.0625 -4.171875 C 5.875 -3.785156 6.59375 -3.59375 7.21875 -3.59375 C 9.007812 -3.59375 9.90625 -4.203125 9.90625 -5.421875 C 9.90625 -5.679688 9.835938 -5.921875 9.703125 -6.140625 C 9.578125 -6.359375 9.351562 -6.578125 9.03125 -6.796875 C 8.707031 -7.015625 8.421875 -7.1875 8.171875 -7.3125 C 7.921875 -7.4375 7.515625 -7.628906 6.953125 -7.890625 C 6.390625 -8.160156 5.972656 -8.363281 5.703125 -8.5 C 4.566406 -9.0625 3.6875 -9.757812 3.0625 -10.59375 C 2.445312 -11.425781 2.140625 -12.328125 2.140625 -13.296875 C 2.140625 -14.960938 2.757812 -16.328125 4 -17.390625 C 5.238281 -18.453125 6.648438 -18.984375 8.234375 -18.984375 Z M 8.234375 -18.984375 "/></g></g></g><g fill="rgb(100%, 56.858826%, 30.198669%)" fill-opacity="1"><g transform="translate(122.03849, 240.107877)"><g><path d="M 0.515625 -9.34375 C 0.515625 -12.039062 1.429688 -14.320312 3.265625 -16.1875 C 5.109375 -18.050781 7.328125 -18.984375 9.921875 -18.984375 C 12.535156 -18.984375 14.753906 -18.050781 16.578125 -16.1875 C 18.398438 -14.332031 19.3125 -12.050781 19.3125 -9.34375 C 19.3125 -6.613281 18.410156 -4.316406 16.609375 -2.453125 C 14.816406 -0.585938 12.585938 0.34375 9.921875 0.34375 C 7.191406 0.34375 4.941406 -0.578125 3.171875 -2.421875 C 1.398438 -4.273438 0.515625 -6.582031 0.515625 -9.34375 Z M 5.109375 -9.34375 C 5.109375 -8.363281 5.257812 -7.46875 5.5625 -6.65625 C 5.863281 -5.851562 6.390625 -5.171875 7.140625 -4.609375 C 7.898438 -4.054688 8.828125 -3.78125 9.921875 -3.78125 C 11.503906 -3.78125 12.695312 -4.320312 13.5 -5.40625 C 14.3125 -6.488281 14.71875 -7.800781 14.71875 -9.34375 C 14.71875 -10.863281 14.304688 -12.171875 13.484375 -13.265625 C 12.660156 -14.359375 11.472656 -14.90625 9.921875 -14.90625 C 8.390625 -14.90625 7.203125 -14.359375 6.359375 -13.265625 C 5.523438 -12.171875 5.109375 -10.863281 5.109375 -9.34375 Z M 5.109375 -9.34375 "/></g></g></g><g fill="rgb(100%, 56.858826%, 30.198669%)" fill-opacity="1"><g transform="translate(144.12147, 240.107877)"><g><path d="M 5.609375 -11.578125 L 5.609375 0 L 1.359375 0 L 1.359375 -18.65625 L 5.609375 -18.65625 L 13.015625 -7.078125 L 13.0625 -7.078125 L 13.0625 -18.65625 L 17.3125 -18.65625 L 17.3125 0 L 13.0625 0 L 5.65625 -11.578125 Z M 5.609375 -11.578125 "/></g></g></g><g fill="rgb(100%, 56.858826%, 30.198669%)" fill-opacity="1"><g transform="translate(165.051742, 240.107877)"><g><path d="M 8.234375 -18.984375 C 9.242188 -18.984375 10.226562 -18.835938 11.1875 -18.546875 C 12.15625 -18.253906 12.875 -17.96875 13.34375 -17.6875 L 14.015625 -17.234375 L 12.296875 -13.84375 C 12.160156 -13.925781 11.972656 -14.039062 11.734375 -14.1875 C 11.492188 -14.332031 11.039062 -14.523438 10.375 -14.765625 C 9.71875 -15.003906 9.101562 -15.125 8.53125 -15.125 C 7.820312 -15.125 7.273438 -14.972656 6.890625 -14.671875 C 6.503906 -14.367188 6.3125 -13.960938 6.3125 -13.453125 C 6.3125 -13.191406 6.398438 -12.953125 6.578125 -12.734375 C 6.753906 -12.515625 7.0625 -12.28125 7.5 -12.03125 C 7.9375 -11.789062 8.320312 -11.59375 8.65625 -11.4375 C 8.988281 -11.289062 9.503906 -11.066406 10.203125 -10.765625 C 11.398438 -10.253906 12.425781 -9.554688 13.28125 -8.671875 C 14.132812 -7.785156 14.5625 -6.785156 14.5625 -5.671875 C 14.5625 -4.597656 14.367188 -3.660156 13.984375 -2.859375 C 13.597656 -2.066406 13.066406 -1.441406 12.390625 -0.984375 C 11.722656 -0.535156 10.984375 -0.203125 10.171875 0.015625 C 9.359375 0.234375 8.476562 0.34375 7.53125 0.34375 C 6.71875 0.34375 5.914062 0.257812 5.125 0.09375 C 4.34375 -0.0703125 3.6875 -0.28125 3.15625 -0.53125 C 2.632812 -0.78125 2.160156 -1.023438 1.734375 -1.265625 C 1.316406 -1.503906 1.007812 -1.707031 0.8125 -1.875 L 0.515625 -2.125 L 2.640625 -5.703125 C 2.828125 -5.546875 3.078125 -5.347656 3.390625 -5.109375 C 3.703125 -4.878906 4.257812 -4.566406 5.0625 -4.171875 C 5.875 -3.785156 6.59375 -3.59375 7.21875 -3.59375 C 9.007812 -3.59375 9.90625 -4.203125 9.90625 -5.421875 C 9.90625 -5.679688 9.835938 -5.921875 9.703125 -6.140625 C 9.578125 -6.359375 9.351562 -6.578125 9.03125 -6.796875 C 8.707031 -7.015625 8.421875 -7.1875 8.171875 -7.3125 C 7.921875 -7.4375 7.515625 -7.628906 6.953125 -7.890625 C 6.390625 -8.160156 5.972656 -8.363281 5.703125 -8.5 C 4.566406 -9.0625 3.6875 -9.757812 3.0625 -10.59375 C 2.445312 -11.425781 2.140625 -12.328125 2.140625 -13.296875 C 2.140625 -14.960938 2.757812 -16.328125 4 -17.390625 C 5.238281 -18.453125 6.648438 -18.984375 8.234375 -18.984375 Z M 8.234375 -18.984375 "/></g></g></g><g fill="rgb(100%, 56.858826%, 30.198669%)" fill-opacity="1"><g transform="translate(182.501298, 240.107877)"><g><path d="M 1.9375 -18.46875 C 2.320312 -18.8125 2.769531 -18.984375 3.28125 -18.984375 C 3.789062 -18.984375 4.238281 -18.8125 4.625 -18.46875 C 5.019531 -18.125 5.21875 -17.734375 5.21875 -17.296875 L 5.21875 -17.203125 C 5.21875 -16.898438 5.097656 -16.207031 4.859375 -15.125 C 4.628906 -14.050781 4.394531 -13.050781 4.15625 -12.125 L 3.828125 -10.734375 L 2.3125 -10.734375 C 1.675781 -14.359375 1.359375 -16.515625 1.359375 -17.203125 L 1.359375 -17.296875 C 1.359375 -17.734375 1.550781 -18.125 1.9375 -18.46875 Z M 1.9375 -18.46875 "/></g></g></g><g fill="rgb(100%, 56.858826%, 30.198669%)" fill-opacity="1"><g transform="translate(191.339471, 240.107877)"><g/></g></g><g fill="rgb(100%, 56.858826%, 30.198669%)" fill-opacity="1"><g transform="translate(199.770794, 240.107877)"><g><path d="M 1.359375 -18.65625 L 8.03125 -18.65625 C 9.820312 -18.65625 11.28125 -18.175781 12.40625 -17.21875 C 13.539062 -16.257812 14.109375 -14.890625 14.109375 -13.109375 C 14.109375 -11.742188 13.765625 -10.597656 13.078125 -9.671875 C 12.390625 -8.742188 11.457031 -8.085938 10.28125 -7.703125 L 16.703125 0 L 11.3125 0 L 5.609375 -7.375 L 5.609375 0 L 1.359375 0 Z M 5.609375 -10.375 L 6.109375 -10.375 C 6.492188 -10.375 6.820312 -10.378906 7.09375 -10.390625 C 7.363281 -10.410156 7.671875 -10.460938 8.015625 -10.546875 C 8.367188 -10.640625 8.648438 -10.769531 8.859375 -10.9375 C 9.066406 -11.101562 9.242188 -11.34375 9.390625 -11.65625 C 9.546875 -11.976562 9.625 -12.363281 9.625 -12.8125 C 9.625 -13.269531 9.546875 -13.65625 9.390625 -13.96875 C 9.242188 -14.289062 9.066406 -14.53125 8.859375 -14.6875 C 8.648438 -14.851562 8.367188 -14.984375 8.015625 -15.078125 C 7.671875 -15.171875 7.363281 -15.222656 7.09375 -15.234375 C 6.820312 -15.253906 6.492188 -15.265625 6.109375 -15.265625 L 5.609375 -15.265625 Z M 5.609375 -10.375 "/></g></g></g><g fill="rgb(100%, 56.858826%, 30.198669%)" fill-opacity="1"><g transform="translate(218.214833, 240.107877)"><g><path d="M 12.03125 -18.65625 L 12.03125 -14.921875 L 5.609375 -14.921875 L 5.609375 -11.21875 L 11.75 -11.21875 L 11.75 -7.484375 L 5.609375 -7.484375 L 5.609375 -3.734375 L 12.03125 -3.734375 L 12.03125 0 L 1.359375 0 L 1.359375 -18.65625 Z M 12.03125 -18.65625 "/></g></g></g><g fill="rgb(100%, 56.858826%, 30.198669%)" fill-opacity="1"><g transform="translate(233.584985, 240.107877)"><g><path d="M 7.1875 0 L -0.640625 -18.65625 L 4.15625 -18.65625 L 8.859375 -6.40625 L 13.5625 -18.65625 L 18.359375 -18.65625 L 10.53125 0 Z M 7.1875 0 "/></g></g></g><g fill="rgb(100%, 56.858826%, 30.198669%)" fill-opacity="1"><g transform="translate(253.565957, 240.107877)"><g><path d="M 5.609375 -18.65625 L 5.609375 0 L 1.359375 0 L 1.359375 -18.65625 Z M 5.609375 -18.65625 "/></g></g></g><g fill="rgb(100%, 56.858826%, 30.198669%)" fill-opacity="1"><g transform="translate(262.788357, 240.107877)"><g><path d="M 12.03125 -18.65625 L 12.03125 -14.921875 L 5.609375 -14.921875 L 5.609375 -11.21875 L 11.75 -11.21875 L 11.75 -7.484375 L 5.609375 -7.484375 L 5.609375 -3.734375 L 12.03125 -3.734375 L 12.03125 0 L 1.359375 0 L 1.359375 -18.65625 Z M 12.03125 -18.65625 "/></g></g></g><g fill="rgb(100%, 56.858826%, 30.198669%)" fill-opacity="1"><g transform="translate(278.15851, 240.107877)"><g><path d="M 15.671875 0 L 12.6875 -10.46875 L 9.703125 0 L 4.96875 0 L -0.34375 -18.65625 L 4.390625 -18.65625 L 7.578125 -5.859375 L 7.6875 -5.859375 L 11.078125 -18.65625 L 14.296875 -18.65625 L 17.6875 -5.859375 L 17.796875 -5.859375 L 20.984375 -18.65625 L 25.6875 -18.65625 L 20.375 0 Z M 15.671875 0 "/></g></g></g><g fill="rgb(100%, 56.858826%, 30.198669%)" fill-opacity="1"><g transform="translate(305.756385, 240.107877)"><g><path d="M 8.234375 -18.984375 C 9.242188 -18.984375 10.226562 -18.835938 11.1875 -18.546875 C 12.15625 -18.253906 12.875 -17.96875 13.34375 -17.6875 L 14.015625 -17.234375 L 12.296875 -13.84375 C 12.160156 -13.925781 11.972656 -14.039062 11.734375 -14.1875 C 11.492188 -14.332031 11.039062 -14.523438 10.375 -14.765625 C 9.71875 -15.003906 9.101562 -15.125 8.53125 -15.125 C 7.820312 -15.125 7.273438 -14.972656 6.890625 -14.671875 C 6.503906 -14.367188 6.3125 -13.960938 6.3125 -13.453125 C 6.3125 -13.191406 6.398438 -12.953125 6.578125 -12.734375 C 6.753906 -12.515625 7.0625 -12.28125 7.5 -12.03125 C 7.9375 -11.789062 8.320312 -11.59375 8.65625 -11.4375 C 8.988281 -11.289062 9.503906 -11.066406 10.203125 -10.765625 C 11.398438 -10.253906 12.425781 -9.554688 13.28125 -8.671875 C 14.132812 -7.785156 14.5625 -6.785156 14.5625 -5.671875 C 14.5625 -4.597656 14.367188 -3.660156 13.984375 -2.859375 C 13.597656 -2.066406 13.066406 -1.441406 12.390625 -0.984375 C 11.722656 -0.535156 10.984375 -0.203125 10.171875 0.015625 C 9.359375 0.234375 8.476562 0.34375 7.53125 0.34375 C 6.71875 0.34375 5.914062 0.257812 5.125 0.09375 C 4.34375 -0.0703125 3.6875 -0.28125 3.15625 -0.53125 C 2.632812 -0.78125 2.160156 -1.023438 1.734375 -1.265625 C 1.316406 -1.503906 1.007812 -1.707031 0.8125 -1.875 L 0.515625 -2.125 L 2.640625 -5.703125 C 2.828125 -5.546875 3.078125 -5.347656 3.390625 -5.109375 C 3.703125 -4.878906 4.257812 -4.566406 5.0625 -4.171875 C 5.875 -3.785156 6.59375 -3.59375 7.21875 -3.59375 C 9.007812 -3.59375 9.90625 -4.203125 9.90625 -5.421875 C 9.90625 -5.679688 9.835938 -5.921875 9.703125 -6.140625 C 9.578125 -6.359375 9.351562 -6.578125 9.03125 -6.796875 C 8.707031 -7.015625 8.421875 -7.1875 8.171875 -7.3125 C 7.921875 -7.4375 7.515625 -7.628906 6.953125 -7.890625 C 6.390625 -8.160156 5.972656 -8.363281 5.703125 -8.5 C 4.566406 -9.0625 3.6875 -9.757812 3.0625 -10.59375 C 2.445312 -11.425781 2.140625 -12.328125 2.140625 -13.296875 C 2.140625 -14.960938 2.757812 -16.328125 4 -17.390625 C 5.238281 -18.453125 6.648438 -18.984375 8.234375 -18.984375 Z M 8.234375 -18.984375 "/></g></g></g></svg>